<svg id="Layer_1" data-name="Layer 1" xmlns="http://www.w3.org/2000/svg" viewBox="0 0 110 48"><defs><style>.cls-1{fill:#ec1c24;}.cls-2{fill:#f6921e;}</style></defs><title>CGV_logo</title><path class="cls-1" d="M91.18,11.61a4.7,4.7,0,0,0-6.32,2.08L75.07,33,64.92,13.5a4.71,4.71,0,0,0-8.36,4.32l3.3,6.34H51.05a4.7,4.7,0,1,0,0,9.4h4.62a9.57,9.57,0,1,1-8.34-14.25,4.7,4.7,0,1,0,0-9.39,19,19,0,0,0-19,18.94,18.22,18.22,0,0,0,.12,2.1c0,.09-.06.18-.08.26A9.57,9.57,0,1,1,19.1,19.31a4.7,4.7,0,1,0,0-9.4A18.95,18.95,0,1,0,33.22,41.53a19,19,0,0,0,32.16-6.76L71,45.49A4.7,4.7,0,0,0,75.13,48h0a4.69,4.69,0,0,0,4.18-2.58L93.26,17.92A4.69,4.69,0,0,0,91.18,11.61Z" transform="translate(-0.11 -0.02)"/><path class="cls-1" d="M103.56,14.14a1.47,1.47,0,0,1-1.47,1.47h0a1.47,1.47,0,0,1-1.47-1.47V12.3a1.47,1.47,0,0,1,1.47-1.47h0a1.47,1.47,0,0,1,1.47,1.47Z" transform="translate(-0.11 -0.02)"/><path class="cls-1" d="M96.4,11a1.47,1.47,0,0,0-.18,2.07h0a1.47,1.47,0,0,0,2.07.18L100,11.85a1.46,1.46,0,0,0,.19-2.07h0a1.48,1.48,0,0,0-2.08-.18Z" transform="translate(-0.11 -0.02)"/><path class="cls-2" d="M96.22,5a1.47,1.47,0,0,0-1.92.79h0a1.47,1.47,0,0,0,.79,1.92l2.67,1.1A1.48,1.48,0,0,0,99.68,8h0a1.46,1.46,0,0,0-.79-1.92Z" transform="translate(-0.11 -0.02)"/><path class="cls-1" d="M100.3.87a1.45,1.45,0,0,0-2-.71h0a1.46,1.46,0,0,0-.72,1.94l1.48,3.39a1.48,1.48,0,0,0,2,.72h0a1.46,1.46,0,0,0,.71-1.95Z" transform="translate(-0.11 -0.02)"/><path class="cls-2" d="M107.89,11a1.46,1.46,0,0,1,.18,2.07h0a1.47,1.47,0,0,1-2.07.18l-1.73-1.41a1.46,1.46,0,0,1-.19-2.07h0a1.48,1.48,0,0,1,2.08-.18Z" transform="translate(-0.11 -0.02)"/><path class="cls-1" d="M108.07,5a1.47,1.47,0,0,1,1.92.79h0a1.46,1.46,0,0,1-.79,1.92l-2.67,1.1A1.48,1.48,0,0,1,104.61,8h0a1.47,1.47,0,0,1,.79-1.92Z" transform="translate(-0.11 -0.02)"/><path class="cls-2" d="M104,.87a1.46,1.46,0,0,1,2-.71h0a1.46,1.46,0,0,1,.72,1.94l-1.48,3.39a1.47,1.47,0,0,1-2,.72h0a1.47,1.47,0,0,1-.72-1.95Z" transform="translate(-0.11 -0.02)"/></svg>