<?xml version="1.0" encoding="utf-8"?>
<!-- Generator: Adobe Illustrator 22.0.1, SVG Export Plug-In . SVG Version: 6.00 Build 0)  -->
<svg version="1.1" xmlns="http://www.w3.org/2000/svg" xmlns:xlink="http://www.w3.org/1999/xlink" x="0px" y="0px"
	 viewBox="0 0 110 48" style="enable-background:new 0 0 110 48;" xml:space="preserve">
<style type="text/css">
	.st0{fill:#EC1C24;}
	.st1{display:none;}
	.st2{display:inline;}
	.st3{fill:#F6921E;}
</style>
<g id="Layer_1">
	<g>
		<path class="st0" d="M99.2,7.6c-2.3-1.2-5.2-0.2-6.3,2.1L83.1,29L72.9,9.5c-1.2-2.3-4-3.2-6.3-2c-2.3,1.2-3.2,4-2,6.3l3.3,6.3
			h-8.8c-2.6,0-4.7,2.1-4.7,4.7c0,2.6,2.1,4.7,4.7,4.7l4.6,0c-1.6,2.9-4.8,4.9-8.3,4.9c-5.3,0-9.6-4.3-9.6-9.6
			c0-5.3,4.3-9.5,9.6-9.6c2.6,0,4.7-2.1,4.7-4.7c0-2.6-2.1-4.7-4.7-4.7c-10.5,0-19,8.5-19,18.9c0,0.7,0,1.4,0.1,2.1
			c0,0.1-0.1,0.2-0.1,0.3c-1,4.1-4.8,7.2-9.3,7.2c-5.3,0-9.6-4.3-9.6-9.6c0-5.3,4.3-9.5,9.6-9.6c2.6,0,4.7-2.1,4.7-4.7
			c0-2.6-2.1-4.7-4.7-4.7c-10.5,0-19,8.5-19,18.9c0,10.5,8.5,18.9,19,18.9c5.6,0,10.6-2.4,14.1-6.3c3.5,3.8,8.5,6.3,14.1,6.3
			c8.4,0,15.6-5.5,18-13l5.6,10.7c0.8,1.6,2.4,2.5,4.2,2.5c0,0,0,0,0,0c1.8,0,3.4-1,4.2-2.6l13.9-27.5
			C102.4,11.6,101.5,8.8,99.2,7.6z"/>
	</g>
</g>
<g id="Layer_2" class="st1">
	<g class="st2">
		<path class="st0" d="M91.2,11.6c-2.3-1.2-5.2-0.2-6.3,2.1L75.1,33L64.9,13.5c-1.2-2.3-4-3.2-6.3-2c-2.3,1.2-3.2,4-2,6.3l3.3,6.3
			h-8.8c-2.6,0-4.7,2.1-4.7,4.7c0,2.6,2.1,4.7,4.7,4.7l4.6,0c-1.6,2.9-4.8,4.9-8.3,4.9c-5.3,0-9.6-4.3-9.6-9.6
			c0-5.3,4.3-9.5,9.6-9.6c2.6,0,4.7-2.1,4.7-4.7c0-2.6-2.1-4.7-4.7-4.7c-10.5,0-19,8.5-19,18.9c0,0.7,0,1.4,0.1,2.1
			c0,0.1-0.1,0.2-0.1,0.3c-1,4.1-4.8,7.2-9.3,7.2c-5.3,0-9.6-4.3-9.6-9.6c0-5.3,4.3-9.5,9.6-9.6c2.6,0,4.7-2.1,4.7-4.7
			c0-2.6-2.1-4.7-4.7-4.7c-10.5,0-19,8.5-19,18.9c0,10.5,8.5,18.9,19,18.9c5.6,0,10.6-2.4,14.1-6.3c3.5,3.8,8.5,6.3,14.1,6.3
			c8.4,0,15.6-5.5,18-13l5.6,10.7c0.8,1.6,2.4,2.5,4.2,2.5c0,0,0,0,0,0c1.8,0,3.4-1,4.2-2.6l13.9-27.5
			C94.4,15.6,93.5,12.8,91.2,11.6z"/>
		<path class="st0" d="M103.6,14.1c0,0.8-0.7,1.5-1.5,1.5l0,0c-0.8,0-1.5-0.7-1.5-1.5v-1.8c0-0.8,0.7-1.5,1.5-1.5l0,0
			c0.8,0,1.5,0.7,1.5,1.5V14.1z"/>
		<path class="st0" d="M96.4,11c-0.6,0.5-0.7,1.4-0.2,2.1l0,0c0.5,0.6,1.5,0.7,2.1,0.2l1.7-1.4c0.6-0.5,0.7-1.4,0.2-2.1l0,0
			c-0.5-0.6-1.4-0.7-2.1-0.2L96.4,11z"/>
		<path class="st3" d="M96.2,5c-0.7-0.3-1.6,0-1.9,0.8l0,0c-0.3,0.8,0,1.6,0.8,1.9l2.7,1.1c0.8,0.3,1.6,0,1.9-0.8l0,0
			c0.3-0.7,0-1.6-0.8-1.9L96.2,5z"/>
		<path class="st0" d="M100.3,0.9c-0.3-0.7-1.2-1.1-2-0.7l0,0c-0.7,0.3-1.1,1.2-0.7,1.9l1.5,3.4c0.3,0.7,1.2,1.1,2,0.7l0,0
			c0.7-0.3,1.1-1.2,0.7-1.9L100.3,0.9z"/>
		<path class="st3" d="M107.9,11c0.6,0.5,0.7,1.4,0.2,2.1l0,0c-0.5,0.6-1.5,0.7-2.1,0.2l-1.7-1.4c-0.6-0.5-0.7-1.4-0.2-2.1l0,0
			c0.5-0.6,1.4-0.7,2.1-0.2L107.9,11z"/>
		<path class="st0" d="M108.1,5c0.7-0.3,1.6,0,1.9,0.8l0,0c0.3,0.8,0,1.6-0.8,1.9l-2.7,1.1c-0.8,0.3-1.6,0-1.9-0.8l0,0
			c-0.3-0.7,0-1.6,0.8-1.9L108.1,5z"/>
		<path class="st3" d="M104,0.9c0.3-0.7,1.2-1.1,2-0.7l0,0c0.7,0.3,1.1,1.2,0.7,1.9l-1.5,3.4c-0.3,0.7-1.2,1.1-2,0.7l0,0
			c-0.7-0.3-1.1-1.2-0.7-1.9L104,0.9z"/>
	</g>
</g>
</svg>
