<?xml version="1.0" encoding="utf-8"?>
<!-- Generator: Adobe Illustrator 22.0.1, SVG Export Plug-In . SVG Version: 6.00 Build 0)  -->
<svg version="1.1" id="Layer_1" xmlns="http://www.w3.org/2000/svg" xmlns:xlink="http://www.w3.org/1999/xlink" x="0px" y="0px"
	 viewBox="0 0 94 38" style="enable-background:new 0 0 94 38;" xml:space="preserve">
<style type="text/css">
	.st0{fill:#DD2726;}
</style>
<g>
	<path class="st0" d="M91.2,1.7c-2.3-1.2-5.2-0.2-6.3,2.1l-9.8,19.3L64.9,3.6c-1.2-2.3-4-3.2-6.3-2c-2.3,1.2-3.2,4-2,6.3l3.3,6.3
		h-8.8c-2.6,0-4.7,2.1-4.7,4.7c0,2.6,2.1,4.7,4.7,4.7l4.6,0c-1.6,2.9-4.8,4.9-8.3,4.9c-5.3,0-9.6-4.3-9.6-9.6c0-5.3,4.3-9.5,9.6-9.6
		c2.6,0,4.7-2.1,4.7-4.7C52,2.1,49.9,0,47.3,0c-10.5,0-19,8.5-19,18.9c0,0.7,0,1.4,0.1,2.1c0,0.1-0.1,0.2-0.1,0.3
		c-1,4.1-4.8,7.2-9.3,7.2c-5.3,0-9.6-4.3-9.6-9.6c0-5.3,4.3-9.5,9.6-9.6c2.6,0,4.7-2.1,4.7-4.7c0-2.6-2.1-4.7-4.7-4.7
		C8.6,0,0.1,8.5,0.1,19c0,10.5,8.5,18.9,19,18.9c5.6,0,10.6-2.4,14.1-6.3c3.5,3.8,8.5,6.3,14.1,6.3c8.4,0,15.6-5.5,18-13l5.6,10.7
		c0.8,1.6,2.4,2.5,4.2,2.5c0,0,0,0,0,0c1.8,0,3.4-1,4.2-2.6L93.3,8C94.4,5.7,93.5,2.9,91.2,1.7z"/>
</g>
</svg>
